<svg xmlns="http://www.w3.org/2000/svg" viewBox="0 0 48 48" width="48" height="48">
  <path fill="#1565C0" d="M28.5,37h14l0.001-0.014C46.6,36.611,50,32.966,50,28.5c0-4.749-3.851-8.6-8.6-8.6 c-0.177,0-0.352,0.012-0.527,0.023C40.708,13.925,35.472,9,29.1,9c-7.041,0-12.773,5.6-13.084,12.572 C11.751,22.148,8,26.292,8,31.2c0,1.392,0.263,2.71,0.723,3.939C9.42,36.321,10.549,37,11.8,37H28.5z"/>
  <path fill="#1976D2" d="M38.213,29.358l-8.421-5.044l-9.179,5.367L38.213,29.358z"/>
  <path fill="#1E88E5" d="M38.213,29.358l-8.421-5.044L16,35h22.894C40.565,35,42,33.542,42,31.87 C42,30.803,40.405,29.816,38.213,29.358z"/>
  <path fill="#42A5F5" d="M11.8,35h4.2l13.613-10.686l-9.179,5.367L8.723,35.139C9.42,35.321,10.549,35,11.8,35z"/>
</svg>
